# xmcd CD database file
#
# Track frame offsets:
#	150
#	42114
#	91366
#	131168
#	169029
#	215515
#	259214
#	290792
#
# Disc length: 4307 seconds
#
# Revision: 0
# Processed by: cddbd v1.5.2PL0 Copyright (c) Steve Scherf et al.
# Submitted via: CDex 1.51
#
DISCID=7910d108
DTITLE=Dave Holland Quintet - Point Of View
DYEAR=1998
DGENRE=Jazz
TTITLE0=The Balance
TTITLE1=Mr. B
TTITLE2=Beduin Trail
TTITLE3=Metamorphos
TTITLE4=Ario
TTITLE5=Herbaceus
TTITLE6=The Benevolent One
TTITLE7=Serenade
EXTD=YEAR: 1998
EXTT0=
EXTT1=
EXTT2=
EXTT3=
EXTT4=
EXTT5=
EXTT6=
EXTT7=
PLAYORDER=
